<svg xmlns="http://www.w3.org/2000/svg" width="560.889" height="895.107" viewBox="0 0 560.889 895.107">
  <g id="Group_4" data-name="Group 4" transform="translate(-1228.312 -183.776)">
    <path id="Path_18" data-name="Path 18" d="M52.749,79.468S92.9,92.724,90.9,223.486C90.115,275.007,17.7,349.271-5.028,426.2S-27.57,618.839-27.57,618.839" transform="translate(1497.297 452.532)" fill="none" stroke="#759f38" stroke-linecap="square" stroke-linejoin="round" stroke-width="15"/>
    <path id="Path_23" data-name="Path 23" d="M-9.189,45.3s.3-.448,1.037-1.512C-4.585,38.656,10.9,17.25,27.431,7.063,41.609-1.674,60.253-5.373,63.344-6.139,99.767-15.167,139,0,139,0" transform="translate(1509.424 809.18)" fill="none" stroke="#759f38" stroke-width="14"/>
    <path id="Path_28" data-name="Path 28" d="M88.016,26.961s-5.671-3.118-13.806-6.545c-8.239-3.471-19.092-7.3-29.259-8.55-10.382-1.281-20.111.112-25.59,7.343-5.617,7.413-6.775,20.969.449,44.033C22.85,72.95,26.28,79.923,30.327,85.6s8.691,10.024,14.163,14.534c5.45,4.493,11.708,9.138,19.037,15.455a248.463,248.463,0,0,1,25.393,25.38c9.719,11.127,19.181,22.466,27.942,33.126s16.818,20.636,23.728,29.038,12.658,15.215,16.788,19.53,6.623,6.117,7.035,4.516c1.155-4.5,2.739-10.3,4.46-16.836,1.695-6.435,3.517-13.554,5.192-20.818,1.648-7.145,3.154-14.429,4.265-21.371a138.074,138.074,0,0,0,1.9-19.139c.111-6.944.588-13.876,1-20.927.411-6.951.763-14.016.65-21.335A139.218,139.218,0,0,0,179.8,84.178a130.549,130.549,0,0,0-7.051-24.769C165.2,40.13,156.557,28.64,147.71,22.054a39.18,39.18,0,0,0-26.857-7.844c-8.8.609-16.9,3.718-22.89,6.732A68.662,68.662,0,0,0,88.016,26.961Z" transform="translate(1554.336 745.009)" fill="#4f6c25"/>
    <path id="Path_26" data-name="Path 26" d="M142.069,27.877s5.966-3.282,14.642-6.871c8.773-3.629,20.4-7.607,31.544-8.85,11.356-1.266,22.277.3,29.163,8.011,7.045,7.889,9.878,22.224,4.588,46.528-2.226,10.224-5.194,17.563-8.99,23.536s-8.41,10.554-13.917,15.308c-5.489,4.738-11.858,9.643-19.22,16.315A228.858,228.858,0,0,0,154.735,148.7c-9.473,11.783-18.643,23.8-27.121,35.1s-16.272,21.9-22.973,30.833-12.309,16.184-16.407,20.785-6.677,6.539-7.336,4.861c-1.854-4.714-4.354-10.805-7.1-17.666-2.708-6.766-5.648-14.259-8.443-21.917-2.753-7.541-5.367-15.24-7.493-22.587A145.382,145.382,0,0,1,53.3,157.807c-1-7.384-2.415-14.758-3.778-22.266-1.345-7.408-2.639-14.944-3.437-22.759A138.394,138.394,0,0,1,45.6,88.643,123.167,123.167,0,0,1,50.48,62.117C56.625,41.46,65,29.175,74.218,22.168c9.289-7.063,19.614-8.9,29.4-8.189,9.994.73,19.485,4.126,26.574,7.4A90.69,90.69,0,0,1,142.069,27.877Z" transform="translate(1310.432 819.366)" fill="#4f6c25"/>
    <g id="Group_3" data-name="Group 3" transform="translate(1228.312 183.776)">
      <g id="Group_1" data-name="Group 1" transform="translate(0 0)">
        <path id="Path_10" data-name="Path 10" d="M68.23,208.009l-15.891,8.37-5.906-15.457c-2.926-7.658-6-13.719-8.618-19.073-2.608-5.326-4.774-9.961-5.913-14.778a32.507,32.507,0,0,1,.234-15.839c1.484-6.039,4.57-13.145,9.85-22.193,3.614-6.192,8.25-13.3,13.491-20.848S66.584,92.609,72.63,84.6c6.057-8.022,12.3-16.036,18.316-23.567,6.024-7.547,11.811-14.609,16.928-20.7s9.975-11.677,14.366-16.6,8.339-9.207,11.639-12.721,5.965-6.271,7.8-8.144S144.526,0,144.526,0s-.813,2.268-2.048,6.123-2.895,9.308-4.586,15.674-3.42,13.675-4.788,21.22a161.068,161.068,0,0,0-2.637,22.773,135.2,135.2,0,0,0,.516,18.48c.518,5.118,1.3,9.372,2.089,13.366s1.594,7.747,2.152,11.839a80.152,80.152,0,0,1,.682,13.974,54.615,54.615,0,0,1-3.153,15.824,85.1,85.1,0,0,1-6.2,13.614,102.169,102.169,0,0,1-6.046,9.507c-1.636,2.279-2.717,3.569-2.717,3.569s-1.486,1.783-4.127,4.675-6.423,6.881-11.022,11.3A207.286,207.286,0,0,1,86.8,195.756,126.712,126.712,0,0,1,68.23,208.009Z" transform="translate(192.867)" fill="#b26100"/>
        <path id="Path_11" data-name="Path 11" d="M17.846,160.938,1.7,155.54l7.078-17.234c3.537-8.613,5.86-16.052,7.981-22.581s4.035-12.137,6.764-17.125A40.425,40.425,0,0,1,35.193,85.2c5.412-4.054,12.7-7.79,22.945-11.505,7.052-2.558,15.514-5.116,24.774-7.6,9.329-2.506,19.48-4.944,29.817-7.235,10.424-2.311,21.04-4.474,31.177-6.406,10.221-1.948,19.947-3.659,28.472-5.044,8.585-1.395,16.571-2.529,23.734-3.446,7.205-.923,13.567-1.625,18.856-2.151,5.311-.529,9.53-.879,12.424-1.1s4.465-.3,4.465-.3-2.52,1.442-6.691,4.011-9.954,6.242-16.515,10.722c-6.537,4.464-13.832,9.72-21.039,15.463a215.091,215.091,0,0,0-20.463,18.336,186.1,186.1,0,0,0-14.526,16.781c-3.731,4.907-6.583,9.251-9.213,13.363s-5.037,7.989-7.876,11.96a105.659,105.659,0,0,1-10.445,12.494,64.055,64.055,0,0,1-14.3,10.876,87.7,87.7,0,0,1-14.464,6.5,97.161,97.161,0,0,1-11.14,3.153c-2.781.606-4.455.827-4.455.827s-2.306.312-6.188.636-9.3.659-15.548.712a172.121,172.121,0,0,1-20.36-.97A102.015,102.015,0,0,1,17.846,160.938Z" transform="translate(278.884 75.332)" fill="#b26100"/>
        <path id="Path_12" data-name="Path 12" d="M7.41,98.546.705,81.759,17.683,73.35c8.57-4.245,15.534-8.508,21.733-12.2,6.223-3.712,11.67-6.85,17.215-8.838a36.63,36.63,0,0,1,17.926-1.932c6.727.908,14.5,3.582,24.278,8.639,6.75,3.491,14.471,8.117,22.694,13.452,8.3,5.386,17.131,11.5,25.988,17.9,8.95,6.467,17.932,13.225,26.416,19.8,8.57,6.642,16.623,13.091,23.6,18.846,7.034,5.8,13.451,11.342,19.129,16.4,5.717,5.089,10.676,9.678,14.753,13.541,4.1,3.882,7.294,7.024,9.47,9.2s3.331,3.38,3.331,3.38-2.948-.884-7.971-2.2c-5-1.308-12.036-3.036-20.238-4.735-8.141-1.686-17.415-3.34-26.984-4.526a205.37,205.37,0,0,0-28.534-1.724,179.463,179.463,0,0,0-22.935,1.767c-6.3.92-11.563,2.086-16.478,3.241-4.9,1.151-9.457,2.291-14.358,3.162A97.85,97.85,0,0,1,90.4,168.06a56.418,56.418,0,0,1-17.486-2.708,76.722,76.722,0,0,1-14.25-6.182A86.716,86.716,0,0,1,49.093,153c-2.255-1.678-3.507-2.8-3.507-2.8s-1.73-1.539-4.5-4.284-6.535-6.66-10.648-11.442a169.884,169.884,0,0,1-12.57-16.461A107.927,107.927,0,0,1,7.41,98.546Z" transform="translate(307.984 192.89)" fill="#b26100"/>
        <path id="Path_13" data-name="Path 13" d="M60.271,19.455,67.476,1.863,83.759,8.1c8.259,3.165,15.556,5.127,22,6.953,6.491,1.838,12.109,3.535,16.988,6.184a32.715,32.715,0,0,1,12.614,11.993c3.572,5.737,6.536,13.58,9.044,24.684,1.726,7.642,3.244,16.825,4.565,26.87,1.329,10.1,2.459,21.08,3.4,32.233.947,11.218,1.7,22.611,2.281,33.455.579,10.9.976,21.241,1.2,30.274.224,9.07.257,17.476.179,24.989-.078,7.537-.267,14.168-.484,19.662s-.464,9.866-.657,12.85-.33,4.594-.33,4.594-1.162-2.7-3.275-7.169c-2.106-4.456-5.149-10.66-8.919-17.693-3.746-6.989-8.2-14.782-13.157-22.484a193.87,193.87,0,0,0-16.034-21.778,163.156,163.156,0,0,0-15.018-15.371c-4.414-3.924-8.362-6.924-12.092-9.681-3.713-2.744-7.211-5.25-10.734-8.184A88.047,88.047,0,0,1,64.514,129.8a55.3,55.3,0,0,1-8.729-14.465,81.828,81.828,0,0,1-4.526-14.592,96.769,96.769,0,0,1-1.729-11.267c-.261-2.82-.282-4.521-.282-4.521s-.036-2.345.094-6.3.422-9.509,1.079-15.943A202.105,202.105,0,0,1,53.67,41.552,129.649,129.649,0,0,1,60.271,19.455Z" transform="translate(201.198 313.052)" fill="#b26100"/>
        <path id="Path_14" data-name="Path 14" d="M124.995,8.639,140.846.833l5.935,16.67c3,8.428,6.193,15.246,8.95,21.33,2.772,6.118,5.1,11.484,6.344,16.991a38.294,38.294,0,0,1-.168,17.874c-1.577,6.7-4.888,14.416-10.563,24.044-3.879,6.582-8.848,14.043-14.449,21.9s-11.811,16.094-18.2,24.257c-6.377,8.147-12.924,16.211-19.191,23.727-6.253,7.5-12.229,14.452-17.486,20.4s-10.18,11.283-14.626,15.963S59,212.671,55.7,215.936s-5.933,5.781-7.749,7.487-2.808,2.6-2.808,2.6.88-2.446,2.236-6.641,3.185-10.126,5.087-17.1,3.868-14.962,5.5-23.29A206.8,206.8,0,0,0,61.477,153.8a180.9,180.9,0,0,0,.351-20.595c-.248-5.7-.773-10.468-1.315-14.93s-1.1-8.6-1.419-13.059a101.089,101.089,0,0,1,.015-14.9,62.268,62.268,0,0,1,3.516-16.147,87.038,87.038,0,0,1,6.125-13.4,98.123,98.123,0,0,1,5.826-9.177c1.568-2.185,2.6-3.408,2.6-3.408s1.416-1.693,3.927-4.421,6.125-6.5,10.516-10.659a185.464,185.464,0,0,1,15.244-13.009A113.853,113.853,0,0,1,124.995,8.639Z" transform="translate(82.624 324.033)" fill="#b26100"/>
        <path id="Path_15" data-name="Path 15" d="M173.2,45.725l14.728,5.953-7.011,16.959c-3.513,8.5-5.873,15.9-8.026,22.408s-4.1,12.13-6.78,17.029a36.608,36.608,0,0,1-11.147,12.695c-5.047,3.613-11.722,6.667-20.915,9.335-6.248,1.813-13.634,3.447-21.588,4.9-7.9,1.439-16.348,2.695-24.8,3.765-8.389,1.062-16.781,1.942-24.655,2.64-7.816.693-15.128,1.206-21.438,1.543-6.271.334-12.018.489-17.1.533-5.059.044-9.469-.02-13.1-.125s-6.457-.25-8.394-.369S0,142.775,0,142.775s1.8-1.026,4.8-2.893,7.226-4.592,12.066-7.979c4.855-3.4,10.338-7.467,15.841-12.019a166.643,166.643,0,0,0,16-14.955A161.421,161.421,0,0,0,60.517,90.708c3.1-4.218,5.512-7.989,7.749-11.565s4.3-6.961,6.685-10.409a95.626,95.626,0,0,1,8.677-10.811,52.316,52.316,0,0,1,11.6-9.29,65.863,65.863,0,0,1,11.656-5.442,70.961,70.961,0,0,1,9.032-2.558c2.268-.479,3.631-.635,3.631-.635s1.883-.223,5.062-.415,7.687-.355,12.908-.23a132.7,132.7,0,0,1,17.365,1.508A84.331,84.331,0,0,1,173.2,45.725Z" transform="translate(0 268.447)" fill="#b26100"/>
        <path id="Path_16" data-name="Path 16" d="M170.36,115.765l6.736,14.868-14.655,9.191c-7.281,4.566-13.112,8.99-18.267,12.81-5.139,3.808-9.611,7.018-14.165,9.158a27.475,27.475,0,0,1-14.569,2.737c-5.387-.462-11.551-2.438-19.184-6.373a184.463,184.463,0,0,1-17.128-10.294c-6.061-4.036-12.385-8.574-18.608-13.258-6.167-4.642-12.234-9.427-17.855-14.016-5.574-4.55-10.715-8.912-15.094-12.76-4.349-3.822-8.255-7.445-11.662-10.723-3.389-3.261-6.29-6.187-8.649-8.635s-4.166-4.408-5.394-5.766S0,80.6,0,80.6s1.715.336,4.662.773,7.163.978,12.133,1.383c5,.406,10.778.676,16.84.565a116,116,0,0,0,18.647-1.74,116.714,116.714,0,0,0,15.606-3.924c4.381-1.442,8.067-2.969,11.535-4.457s6.735-2.945,10.261-4.234A71.874,71.874,0,0,1,101.61,65.7a38.266,38.266,0,0,1,13.176-.044,50.033,50.033,0,0,1,11.12,3.249,57.411,57.411,0,0,1,7.7,3.928c1.844,1.126,2.877,1.914,2.877,1.914s1.432,1.083,3.744,3.066,5.531,4.891,9.08,8.523a129.784,129.784,0,0,1,11.173,13A89.944,89.944,0,0,1,170.36,115.765Z" transform="translate(9.484 142.915)" fill="#b26100"/>
        <path id="Path_17" data-name="Path 17" d="M131.14,168.957l-6.876,16.579L109.7,180.4a191.935,191.935,0,0,0-18.94-5.355c-5.434-1.347-10.079-2.591-14.027-4.685a23.417,23.417,0,0,1-9.811-9.711c-2.627-4.678-4.656-11.111-6.169-20.208-1.029-6.189-1.822-13.6-2.419-21.639-.594-8-.994-16.638-1.239-25.335-.244-8.654-.336-17.373-.315-25.606.021-8.2.153-15.917.358-22.622.2-6.682.521-12.857.879-18.356s.758-10.3,1.132-14.287.722-7.126.976-9.281S60.543,0,60.543,0s.735,1.715,2.1,4.542,3.364,6.8,5.889,11.284A171.233,171.233,0,0,0,77.642,30.35,104.479,104.479,0,0,0,89.4,44.493a93.686,93.686,0,0,0,11.619,9.847,102.363,102.363,0,0,0,9.734,6.036c3.049,1.7,5.948,3.257,8.884,5.169a57.515,57.515,0,0,1,9.152,7.365,37.081,37.081,0,0,1,7.512,11.027,59.482,59.482,0,0,1,3.919,11.925,75.711,75.711,0,0,1,1.474,9.567c.216,2.432.221,3.917.221,3.917s.014,2.05-.135,5.54-.463,8.44-1.119,14.219a185.584,185.584,0,0,1-3.187,19.274A125.291,125.291,0,0,1,131.14,168.957Z" transform="translate(72.895 49.555)" fill="#b26100"/>
      </g>
      <g id="Group_2" data-name="Group 2" transform="translate(19.618 11.403)">
        <path id="Path_1" data-name="Path 1" d="M106.976,206.676,94.09,219.853,83.171,208.018A199.737,199.737,0,0,0,68.43,193.933c-4.306-3.854-7.948-7.24-10.633-11.148a28.064,28.064,0,0,1-4.891-14.207c-.487-5.886.256-13.262,2.525-23.093,1.548-6.709,3.8-14.555,6.491-22.98s5.811-17.4,9.112-26.416S77.8,78.056,81.191,69.55s6.687-16.475,9.647-23.383,5.814-13.24,8.435-18.861S104.28,16.78,106.3,12.735s3.665-7.228,4.809-9.4S112.889,0,112.889,0s-.045,2.172.02,5.82.238,8.8.677,14.737c.44,5.959,1.147,12.726,2.278,19.6A132.246,132.246,0,0,0,120.722,60.5a113.04,113.04,0,0,0,6.515,15.719,117.721,117.721,0,0,0,6.379,10.839c2.075,3.2,4.076,6.169,5.957,9.528a68.258,68.258,0,0,1,5.264,11.907,46.415,46.415,0,0,1,2.2,14.871,74.653,74.653,0,0,1-1.47,14.045,92.767,92.767,0,0,1-2.7,10.438c-.828,2.572-1.448,4.083-1.448,4.083s-.849,2.087-2.451,5.554-3.957,8.315-6.965,13.834a206.522,206.522,0,0,1-10.88,17.841A131.987,131.987,0,0,1,106.976,206.676Z" transform="translate(129.785 0)" fill="#ff9d28"/>
        <path id="Path_3" data-name="Path 3" d="M19.4,177.535l-17.552.877,1.188-17.943c.591-8.928.389-16.361.292-22.9-.1-6.516-.091-12.149.908-17.5a38.3,38.3,0,0,1,6.861-15.816c3.878-5.41,9.658-11.173,18.26-17.908,5.909-4.626,13.153-9.72,21.164-15.011,8.052-5.317,16.888-10.84,25.926-16.284,9.091-5.476,18.39-10.876,27.291-15.9,8.954-5.058,17.5-9.737,25.018-13.733,7.554-4.016,14.623-7.606,20.987-10.735,6.391-3.143,12.065-5.819,16.794-7.992,4.745-2.18,8.533-3.851,11.138-4.978S181.7,0,181.7,0s-1.837,2.037-4.817,5.566-7.093,8.536-11.657,14.49-9.563,12.832-14.332,20.124a198.418,198.418,0,0,0-12.924,22.566,168.743,168.743,0,0,0-7.956,19.4c-1.849,5.524-3.061,10.27-4.145,14.746s-2.042,8.692-3.377,13.137a97.749,97.749,0,0,1-5.657,14.553,62.765,62.765,0,0,1-9.926,14.537,90.867,90.867,0,0,1-11.634,10.795,103.845,103.845,0,0,1-9.628,6.695c-2.469,1.514-4.006,2.3-4.006,2.3s-2.115,1.086-5.746,2.738-8.746,3.855-14.771,6.1a191.568,191.568,0,0,1-20.055,6.316A113.59,113.59,0,0,1,19.4,177.535Z" transform="translate(255.848 41.077)" fill="#ff9d28"/>
        <path id="Path_4" data-name="Path 4" d="M13.02,138.845,1.238,126.278l13.37-13.464c6.721-6.768,11.9-12.969,16.54-18.391S39.882,84.346,44.431,80.68a38.82,38.82,0,0,1,16.116-7.892c6.564-1.53,14.67-1.88,25.411-.846,7.411.714,16.093,2.081,25.471,3.892,9.466,1.827,19.656,4.109,29.965,6.627,10.416,2.544,20.957,5.33,30.979,8.129,10.122,2.827,19.7,5.665,28.061,8.27,8.427,2.627,16.2,5.239,23.131,7.683,6.98,2.462,13.095,4.75,18.154,6.711,5.085,1.971,9.093,3.607,11.833,4.751s4.214,1.8,4.214,1.8-2.994.255-8.03.859c-5.016.6-12.043,1.547-20.134,2.927-8.04,1.372-17.119,3.172-26.32,5.491a211.5,211.5,0,0,0-26.911,8.541,185.967,185.967,0,0,0-20.664,9.7c-5.55,3.06-10.053,5.972-14.244,8.755s-8.056,5.426-12.346,7.96a103.1,103.1,0,0,1-14.775,7.244,59.316,59.316,0,0,1-17.359,3.873,78.913,78.913,0,0,1-15.51-.411,87.2,87.2,0,0,1-11.1-2.092c-2.69-.695-4.247-1.25-4.247-1.25s-2.147-.759-5.675-2.227-8.389-3.625-13.86-6.436A160.816,160.816,0,0,1,29.275,152.5,99.244,99.244,0,0,1,13.02,138.845Z" transform="translate(266.966 117.781)" fill="#ff9d28"/>
        <path id="Path_5" data-name="Path 5" d="M10.583,25.057l1.23-18.465L29.5,6.129C38.46,5.895,46.1,4.944,52.865,4.186c6.81-.762,12.734-1.327,18.265-.769a31.944,31.944,0,0,1,16,6.026c5.315,3.8,10.76,9.7,16.875,18.712,4.217,6.211,8.762,13.9,13.42,22.451,4.7,8.622,9.512,18.132,14.22,27.9,4.748,9.849,9.387,19.958,13.677,29.661,4.324,9.782,8.288,19.142,11.641,27.386,3.375,8.3,6.342,16.075,8.9,23.082,2.567,7.043,4.714,13.3,6.437,18.514,1.729,5.235,3.028,9.415,3.9,12.288s1.3,4.441,1.3,4.441-2.075-2.067-5.7-5.418c-3.6-3.337-8.728-7.934-14.838-13.014-6.066-5.043-13.091-10.551-20.563-15.769a184.857,184.857,0,0,0-23.043-13.937,158.581,158.581,0,0,0-19.824-8.37c-5.622-1.909-10.476-3.144-15.036-4.239-4.54-1.091-8.791-2.043-13.211-3.384a85.643,85.643,0,0,1-14.136-5.666A51.435,51.435,0,0,1,37.8,114.112a74.123,74.123,0,0,1-9.264-11.688,87.2,87.2,0,0,1-5.414-9.683C21.94,90.256,21.358,88.7,21.358,88.7S20.55,86.569,19.37,82.9s-2.719-8.85-4.193-14.967A184.249,184.249,0,0,1,11.4,47.481,119.968,119.968,0,0,1,10.583,25.057Z" transform="translate(240.587 264.782)" fill="#ff9d28"/>
        <path id="Path_6" data-name="Path 6" d="M105.515,14.54,118.582,1.4l11.346,12.86c5.75,6.517,11.162,11.5,15.905,15.991,4.775,4.518,8.864,8.526,11.939,13.085a34.659,34.659,0,0,1,5.852,16.473c.705,6.786.041,15.207-2.32,26.353-1.619,7.644-4.028,16.558-6.937,26.126-2.915,9.585-6.331,19.823-9.96,30.091-3.634,10.283-7.478,20.592-11.241,30.3s-7.452,18.833-10.759,26.712-6.511,15.092-9.45,21.468-5.618,11.922-7.881,16.479-4.112,8.127-5.4,10.557-2,3.721-2,3.721.072-2.76.039-7.424S97.55,233,97.135,225.432c-.414-7.537-1.1-16.082-2.241-24.785a199.79,199.79,0,0,0-4.89-25.6,169.111,169.111,0,0,0-6.52-19.762c-2.147-5.309-4.263-9.617-6.293-13.623-2.022-3.991-3.959-7.683-5.757-11.766a92.578,92.578,0,0,1-4.9-14.037,58.994,58.994,0,0,1-1.756-16.538A86.58,86.58,0,0,1,66.554,84.4,100.95,100.95,0,0,1,69.4,73.57c.857-2.643,1.488-4.18,1.488-4.18s.865-2.124,2.486-5.632,4-8.4,7.019-13.942A202.853,202.853,0,0,1,91.3,31.963,127.339,127.339,0,0,1,105.515,14.54Z" transform="translate(108.97 289.007)" fill="#ff9d28"/>
        <path id="Path_7" data-name="Path 7" d="M145.514.314,162.137.03l-1.411,18.164c-.71,9.141-.63,16.853-.637,23.679-.007,6.848-.1,12.8-1.171,18.385A39.2,39.2,0,0,1,151.9,76.465c-3.9,5.379-9.636,10.9-18.067,17.085-5.743,4.213-12.711,8.724-20.334,13.3-7.585,4.555-15.808,9.169-24.115,13.621-8.259,4.426-16.6,8.69-24.477,12.577-7.836,3.865-15.223,7.36-21.642,10.278-6.389,2.9-12.3,5.425-17.565,7.57-5.244,2.136-9.853,3.9-13.665,5.305s-6.81,2.44-8.869,3.131S0,160.365,0,160.365s1.549-1.729,4.086-4.764,6.07-7.385,10.027-12.616,8.353-11.361,12.6-17.938A192.479,192.479,0,0,0,38.46,104.4a177.314,177.314,0,0,0,7.606-18.13c1.829-5.193,3.1-9.684,4.248-13.917s2.172-8.2,3.511-12.354A102.251,102.251,0,0,1,59.22,46.53a59.5,59.5,0,0,1,8.817-13.149A78.537,78.537,0,0,1,78.1,23.8a85.9,85.9,0,0,1,8.3-5.877c2.134-1.324,3.458-2,3.458-2s1.827-.939,4.966-2.353,7.619-3.317,12.906-5.233a157.236,157.236,0,0,1,17.9-5.363A96.638,96.638,0,0,1,145.514.314Z" transform="translate(35.746 292.068)" fill="#ff9d28"/>
        <path id="Path_8" data-name="Path 8" d="M184.543,93.718,195.2,105.873l-12.69,12.935c-6.323,6.445-11.2,12.348-15.546,17.488s-8.142,9.5-12.3,12.879a31.939,31.939,0,0,1-14.376,6.873c-5.692,1.129-12.57,1.029-21.46-.524a197.245,197.245,0,0,1-20.314-4.9c-7.285-2.11-14.966-4.626-22.576-7.31-7.541-2.66-15.01-5.487-21.967-8.253-6.9-2.743-13.3-5.43-18.778-7.846-5.443-2.4-10.375-4.735-14.7-6.886-4.305-2.139-8.021-4.1-11.059-5.755s-5.383-3.008-6.983-3.951S0,109.157,0,109.157s1.868-.174,5.043-.607,7.695-1.131,12.966-2.177c5.3-1.051,11.372-2.457,17.645-4.306a137.549,137.549,0,0,0,18.927-7,137.254,137.254,0,0,0,15.2-8.186c4.178-2.616,7.615-5.113,10.833-7.508s6.23-4.7,9.549-6.918a83.521,83.521,0,0,1,11.473-6.463,44.58,44.58,0,0,1,13.518-3.768,56.455,56.455,0,0,1,12.2-.085,62.345,62.345,0,0,1,8.857,1.519c2.166.538,3.418.987,3.418.987s1.734.614,4.591,1.827,6.874,3.039,11.408,5.455a128.054,128.054,0,0,1,14.676,9.084A85.516,85.516,0,0,1,184.543,93.718Z" transform="translate(0 157.691)" fill="#ff9d28"/>
        <path id="Path_9" data-name="Path 9" d="M141.31,140.517l-1.375,17.52-16.382.771c-8.1.382-14.927,1.4-20.9,2.21-5.943.807-11.057,1.413-15.746.986a23.956,23.956,0,0,1-13.125-5.151c-4.188-3.262-8.337-8.333-12.817-16-3.043-5.2-6.234-11.582-9.426-18.594-3.17-6.963-6.338-14.546-9.363-22.224-3-7.623-5.868-15.342-8.457-22.652-2.573-7.262-4.877-14.129-6.784-20.113-1.9-5.953-3.519-11.489-4.885-16.439-1.36-4.93-2.466-9.284-3.337-12.9s-1.5-6.469-1.919-8.435-.617-3.03-.617-3.03,1.269,1.233,3.51,3.213,5.486,4.734,9.415,7.753A158.614,158.614,0,0,0,42.776,36.9a102.246,102.246,0,0,0,16.229,8.2,98.152,98.152,0,0,0,14.736,4.493,112.655,112.655,0,0,0,11.638,1.823c3.585.407,6.971.736,10.509,1.366a60.866,60.866,0,0,1,11.485,3.2,35.364,35.364,0,0,1,11.054,7,52.1,52.1,0,0,1,7.795,9.1,64.373,64.373,0,0,1,4.606,7.915c1.014,2.072,1.509,3.384,1.509,3.384s.689,1.809,1.69,4.953,2.324,7.654,3.579,13.029a159.2,159.2,0,0,1,3.206,18.357A110.73,110.73,0,0,1,141.31,140.517Z" transform="translate(59.014 70.444)" fill="#ff9d28"/>
      </g>
      <path id="Ellipse_1" data-name="Ellipse 1" d="M89.626,6.131A72.036,72.036,0,0,1,120.1,10.242a68.259,68.259,0,0,1,24.862,15.986,72.215,72.215,0,0,1,16.391,25.811,82.223,82.223,0,0,1,4.852,33.2,93.192,93.192,0,0,1-8.589,34.177,97.539,97.539,0,0,1-19.851,28.243,91.949,91.949,0,0,1-27.8,18.981,80.29,80.29,0,0,1-32.286,6.835,70.614,70.614,0,0,1-30.4-6.769A68.436,68.436,0,0,1,24.2,148.752a73.671,73.671,0,0,1-13.935-26.058A83.682,83.682,0,0,1,7.182,91.2,93.655,93.655,0,0,1,15.7,59.683,97.644,97.644,0,0,1,33.762,33.405,92.95,92.95,0,0,1,59.107,14.67,82.179,82.179,0,0,1,89.626,6.131Z" transform="translate(167.037 170.659)" fill="#6c1a0a"/>
      <path id="Ellipse_2" data-name="Ellipse 2" d="M72.357,4.435A57.774,57.774,0,0,1,96.863,7.943a54.856,54.856,0,0,1,19.854,13.016,58.157,58.157,0,0,1,12.977,20.785A66.236,66.236,0,0,1,133.442,68.3a75,75,0,0,1-6.907,27.265,78.465,78.465,0,0,1-15.814,22.552,74.028,74.028,0,0,1-22.152,15.252,64.7,64.7,0,0,1-25.822,5.645,56.853,56.853,0,0,1-24.457-5.228,54.971,54.971,0,0,1-18.7-14.286A59.1,59.1,0,0,1,8.2,98.562,67.181,67.181,0,0,1,5.6,73.1a75.3,75.3,0,0,1,6.861-25.544A78.533,78.533,0,0,1,27.114,26.275,74.677,74.677,0,0,1,47.678,11.181,65.92,65.92,0,0,1,72.357,4.435Z" transform="translate(183.128 188.194)" fill="#8d220d"/>
      <path id="Ellipse_3" data-name="Ellipse 3" d="M54.812,2.969A43.481,43.481,0,0,1,73.3,5.772a41.371,41.371,0,0,1,14.874,9.942,43.951,43.951,0,0,1,9.639,15.7,50.065,50.065,0,0,1,2.713,19.939,56.627,56.627,0,0,1-5.21,20.408A59.224,59.224,0,0,1,83.5,88.661a55.923,55.923,0,0,1-16.561,11.5,48.918,48.918,0,0,1-19.377,4.371A42.956,42.956,0,0,1,29.1,100.748,41.438,41.438,0,0,1,14.88,90.082,44.49,44.49,0,0,1,6.146,74.289,50.6,50.6,0,0,1,4.083,54.975,56.8,56.8,0,0,1,9.267,35.547,59.263,59.263,0,0,1,20.428,19.374,56.293,56.293,0,0,1,36.086,7.967,49.616,49.616,0,0,1,54.812,2.969Z" transform="translate(199.47 205.735)" fill="#9d240c"/>
    </g>
  </g>
</svg>
